<svg width="235" height="80" viewBox="0 0 235 80" fill="none" xmlns="http://www.w3.org/2000/svg">
<path d="M66.9618 9.36055L51.3558 8.70749C50.6179 8.70749 48.183 13.0612 44.0509 21.7687C39.9188 30.4036 36.3401 38.7846 33.3149 46.9116C30.2896 55.0386 28.777 60.9161 28.777 64.5442C28.777 68.0998 29.9207 69.8775 32.2081 69.8775C34.5692 69.8775 37.5207 67.5193 41.0625 62.8027C41.4314 62.3673 41.8004 62.1497 42.1693 62.1497C42.5382 62.1497 42.7227 62.4762 42.7227 63.1292C42.7227 63.7823 42.2062 64.9796 41.1732 66.7211C40.214 68.4626 38.9227 70.3492 37.2994 72.381C35.676 74.3401 33.5731 76.0816 30.9906 77.6054C28.408 79.2018 25.7517 80 23.0216 80C18.9633 80 16.9341 77.2426 16.9341 71.7279C16.9341 64.907 20.439 53.2971 27.4488 36.898C32.4663 25.3605 37.078 15.7823 41.2839 8.16327H39.845L28.4449 7.94558C22.0992 7.94558 16.5652 8.74377 11.8428 10.3401C9.26028 11.2109 7.19424 12.517 5.64471 14.2585C4.16897 15.9274 3.4311 17.9592 3.4311 20.3537L4.31654 24.9252C4.31654 25.6508 3.94761 26.0136 3.20974 26.0136C2.25051 26.0136 1.47574 25.1066 0.885445 23.2925C0.295148 21.4059 0 19.7732 0 18.3946C0 14.9841 0.811658 12.0816 2.43497 9.68708C4.05829 7.29252 6.2719 5.47846 9.07581 4.2449C14.3885 1.92291 20.2546 0.761908 26.674 0.761908C33.0935 0.761908 40.3615 1.161 48.4781 1.95918C56.5947 2.68481 63.9734 3.04762 70.6142 3.04762C77.2551 3.04762 81.5716 2.03175 83.5639 0C83.7852 0.507939 83.8959 1.01587 83.8959 1.52381C83.8959 3.91837 82.3464 5.84127 79.2473 7.29252C76.1483 8.6712 72.0531 9.36055 66.9618 9.36055Z" fill="white"/>
<path d="M93.5684 34.068L99.1024 34.1769H100.209C97.7742 36.1361 94.7858 41.1066 91.244 49.0884C87.7023 56.9977 85.9314 62.7664 85.9314 66.3946C85.9314 68.2812 86.5955 69.2245 87.9236 69.2245C92.2033 69.2245 97.6635 63.0204 104.304 50.6122C104.6 50.1043 104.858 49.8503 105.079 49.8503C105.522 49.8503 105.743 50.5397 105.743 51.9184C105.743 53.2245 105.374 54.4943 104.636 55.7279C95.5606 70.7483 87.9605 78.2585 81.8362 78.2585C77.8517 78.2585 75.8595 75.2472 75.8595 69.2245C75.8595 64.7256 76.6342 60.2993 78.1837 55.9456C69.772 70.6032 61.9875 77.932 54.8301 77.932C49.8864 77.932 47.4145 74.5941 47.4145 67.9184C47.4145 62.839 48.5213 57.6871 50.735 52.4626C53.0224 47.2381 56.269 42.8118 60.4748 39.1837C64.6807 35.483 69.2924 33.6327 74.3099 33.6327C76.6711 33.6327 78.8847 34.1769 80.9508 35.2653C83.0168 36.2812 84.3819 37.9501 85.0459 40.2721C85.8576 38.6032 87.112 37.1519 88.8091 35.9184C90.5062 34.6848 92.0926 34.068 93.5684 34.068ZM84.3819 41.2517C83.644 38.9297 81.91 37.7687 79.1799 37.7687C74.3099 37.7687 69.5875 41.1066 65.0127 47.7823C60.438 54.3855 58.1506 60.2993 58.1506 65.5238C58.1506 67.7732 59.036 68.898 60.8069 68.898C62.7253 68.898 64.9759 67.737 67.5584 65.415C70.141 63.0204 72.4652 60.2268 74.5313 57.034C79.1061 49.9229 82.3896 44.6621 84.3819 41.2517Z" fill="white"/>
<path d="M154.183 49.7415C154.626 49.7415 154.847 50.4308 154.847 51.8095C154.847 53.1156 154.626 54.1315 154.183 54.8571L151.748 58.8844C148.133 64.7619 145.181 68.6803 142.894 70.6395C140.385 72.8889 137.95 74.0136 135.589 74.0136C132.49 74.0136 130.424 72.5986 129.391 69.7687C126.366 72.7438 123.303 74.9932 120.204 76.517C117.105 77.9683 113.637 78.6939 109.8 78.6939C105.963 78.6939 103.233 78.1134 101.61 76.9524C100.06 75.7188 99.2857 73.7234 99.2857 70.966C99.2857 68.1361 99.7284 64.9433 100.614 61.3878C102.901 51.8095 106.738 40.5624 112.125 27.6463C117.511 14.6576 121.754 7.76418 124.853 6.96599C125.812 6.7483 127.546 6.63946 130.055 6.63946C132.637 6.5669 134.187 6.49433 134.703 6.42177C131.826 8.52608 127.915 14.6939 122.971 24.9252C118.101 35.1565 114.412 44.9887 111.903 54.4218C119.872 40.5624 127.399 33.6327 134.482 33.6327C139.5 33.6327 142.008 37.1882 142.008 44.2993C142.008 51.3379 138.983 58.5215 132.933 65.8503C133.006 67.0839 133.375 68.0635 134.039 68.7891C134.703 69.5147 135.552 69.8775 136.585 69.8775C137.618 69.8775 138.725 69.4422 139.905 68.5714C141.16 67.6281 142.082 66.8299 142.672 66.1769C143.337 65.4512 144.185 64.4354 145.218 63.1292C146.251 61.8231 147.469 60.0816 148.871 57.9048C150.273 55.6553 151.453 53.7324 152.412 52.1361C153.445 50.5397 154.036 49.7415 154.183 49.7415ZM129.612 42.8844C129.391 42.8118 128.801 42.7755 127.841 42.7755C126.956 42.7755 125.222 43.7188 122.639 45.6054C120.131 47.4921 117.179 51.1202 113.785 56.4898C110.391 61.7868 108.694 66.1769 108.694 69.6599C108.694 73.0703 109.763 74.7755 111.903 74.7755C115.814 74.7755 120.02 71.0748 124.521 63.6735C129.022 56.1996 131.272 50.322 131.272 46.0408C131.272 44.2268 130.719 43.1746 129.612 42.8844Z" fill="white"/>
<path d="M181.34 19.7007H180.897C179.421 19.7007 177.982 20.3175 176.581 21.551C175.252 22.7846 174.293 24.0544 173.703 25.3605C171.784 24.6349 170.825 23.3288 170.825 21.4422C170.825 19.5556 171.711 17.6689 173.481 15.7823C175.252 13.8231 176.949 12.8435 178.573 12.8435C180.196 12.8435 181.414 13.2064 182.225 13.932C183.037 14.6576 183.443 15.6009 183.443 16.7619C183.443 17.8503 182.742 18.8299 181.34 19.7007ZM166.287 34.068L171.821 34.1769H172.928C171.747 35.0476 170.161 37.4059 168.169 41.2517C166.25 45.0975 164.811 48 163.852 49.9592C162.893 51.9184 161.786 54.5669 160.532 57.9048C159.351 61.2426 158.761 63.9637 158.761 66.068C158.761 68.1723 159.462 69.2245 160.864 69.2245C161.823 69.2245 163.151 68.6077 164.848 67.3742C166.619 66.068 168.058 64.7256 169.165 63.3469C170.272 61.8957 171.489 60.0816 172.817 57.9048C174.219 55.7279 175.4 53.8413 176.359 52.2449C177.392 50.6485 177.982 49.8503 178.13 49.8503C178.573 49.8503 178.794 50.5397 178.794 51.9184C178.794 53.2245 178.425 54.4943 177.687 55.7279C174.957 60.2268 172.448 64 170.161 67.0476C167.947 70.0227 165.402 72.6349 162.524 74.8844C159.646 77.1338 157.027 78.2585 154.666 78.2585C150.534 78.2585 148.468 75.4286 148.468 69.7687C148.468 60.9887 151.53 51.2653 157.654 40.5986C160.237 36.2449 163.114 34.068 166.287 34.068Z" fill="white"/>
<path d="M207.991 15.2381C204.376 17.7052 200.317 24.0181 195.816 34.1769H206.995L207.106 34.2857C207.106 34.6485 206.7 35.3016 205.888 36.2449C205.077 37.1156 204.376 37.551 203.785 37.551H194.267C188.438 51.7732 185.523 60.9161 185.523 64.9796C185.523 67.737 186.409 69.1156 188.18 69.1156C190.762 69.1156 193.787 66.9388 197.255 62.585C198.067 61.6417 199.137 60.0454 200.465 57.7959C203.859 52.4263 205.63 49.7415 205.778 49.7415C206.22 49.7415 206.442 50.322 206.442 51.483C206.368 54.2404 203.306 59.61 197.255 67.5918C195.263 70.2041 192.865 72.6349 190.061 74.8844C187.257 77.1338 184.712 78.2585 182.424 78.2585C178.218 78.2585 176.115 75.356 176.115 69.551C176.115 64.6893 177.296 59.102 179.657 52.7891V52.6803C178.255 55.22 177.038 57.1066 176.005 58.3401C175.045 59.5737 174.492 60.1905 174.344 60.1905C174.049 60.1905 173.902 59.7551 173.902 58.8844C173.902 57.941 174.381 56.4535 175.341 54.4218C176.374 52.39 177.739 49.7415 179.436 46.4762C181.207 43.2109 182.645 40.2358 183.752 37.551H176.337C176.115 37.551 176.005 37.4059 176.005 37.1157C176.005 36.7528 176.263 36.1723 176.779 35.3742C177.37 34.576 177.812 34.1769 178.108 34.1769H186.519C191.832 21.6236 197.218 15.3469 202.679 15.3469C205.852 15.3469 207.622 15.3107 207.991 15.2381Z" fill="white"/>
<path d="M232.897 19.7007H232.454C230.979 19.7007 229.54 20.3175 228.138 21.551C226.81 22.7846 225.85 24.0544 225.26 25.3605C223.342 24.6349 222.382 23.3288 222.382 21.4422C222.382 19.5556 223.268 17.6689 225.039 15.7823C226.81 13.8231 228.507 12.8435 230.13 12.8435C231.753 12.8435 232.971 13.2064 233.783 13.932C234.594 14.6576 235 15.6009 235 16.7619C235 17.8503 234.299 18.8299 232.897 19.7007ZM217.844 34.068L223.379 34.1769H224.485C223.305 35.0476 221.718 37.4059 219.726 41.2517C217.808 45.0975 216.369 48 215.41 49.9592C214.45 51.9184 213.343 54.5669 212.089 57.9048C210.909 61.2426 210.318 63.9637 210.318 66.068C210.318 68.1723 211.019 69.2245 212.421 69.2245C213.38 69.2245 214.709 68.6077 216.406 67.3742C218.177 66.068 219.615 64.7256 220.722 63.3469C221.829 61.8957 223.046 60.0816 224.375 57.9048C225.777 55.7279 226.957 53.8413 227.916 52.2449C228.949 50.6485 229.54 49.8503 229.687 49.8503C230.13 49.8503 230.351 50.5397 230.351 51.9184C230.351 53.2245 229.982 54.4943 229.245 55.7279C226.514 60.2268 224.006 64 221.718 67.0476C219.505 70.0227 216.959 72.6349 214.081 74.8844C211.204 77.1338 208.584 78.2585 206.223 78.2585C202.091 78.2585 200.025 75.4286 200.025 69.7687C200.025 60.9887 203.087 51.2653 209.211 40.5986C211.794 36.2449 214.672 34.068 217.844 34.068Z" fill="white"/>
</svg>
