<svg width="172" height="337" viewBox="0 0 172 337" fill="none" xmlns="http://www.w3.org/2000/svg">
<g opacity="0.2">
<path d="M361 156C361 255.411 280.411 336 181 336C81.5888 336 1 255.411 1 156C1 56.5888 81.5888 -24 181 -24C280.411 -24 361 56.5888 361 156Z" stroke="white"/>
<path d="M357.4 156C357.4 253.423 278.423 332.4 181 332.4C83.577 332.4 4.6 253.423 4.6 156C4.6 58.577 83.577 -20.4 181 -20.4C278.423 -20.4 357.4 58.577 357.4 156Z" stroke="white"/>
<path d="M325 156C325 235.529 260.529 300 181 300C101.471 300 37 235.529 37 156C37 76.471 101.471 12 181 12C260.529 12 325 76.471 325 156Z" stroke="white"/>
<path d="M184.6 156C184.6 157.988 182.988 159.6 181 159.6C179.012 159.6 177.4 157.988 177.4 156C177.4 154.012 179.012 152.4 181 152.4C182.988 152.4 184.6 154.012 184.6 156Z" stroke="white"/>
<path d="M188.2 156C188.2 159.976 184.976 163.2 181 163.2C177.024 163.2 173.8 159.976 173.8 156C173.8 152.024 177.024 148.8 181 148.8C184.976 148.8 188.2 152.024 188.2 156Z" stroke="white"/>
<path d="M191.8 156C191.8 161.965 186.965 166.8 181 166.8C175.035 166.8 170.2 161.965 170.2 156C170.2 150.035 175.035 145.2 181 145.2C186.965 145.2 191.8 150.035 191.8 156Z" stroke="white"/>
<path d="M195.4 156C195.4 163.953 188.953 170.4 181 170.4C173.047 170.4 166.6 163.953 166.6 156C166.6 148.047 173.047 141.6 181 141.6C188.953 141.6 195.4 148.047 195.4 156Z" stroke="white"/>
<path d="M199 156C199 165.941 190.941 174 181 174C171.059 174 163 165.941 163 156C163 146.059 171.059 138 181 138C190.941 138 199 146.059 199 156Z" stroke="white"/>
<path d="M202.6 156C202.6 167.929 192.929 177.6 181 177.6C169.071 177.6 159.4 167.929 159.4 156C159.4 144.071 169.071 134.4 181 134.4C192.929 134.4 202.6 144.071 202.6 156Z" stroke="white"/>
<path d="M206.2 156C206.2 169.918 194.918 181.2 181 181.2C167.082 181.2 155.8 169.918 155.8 156C155.8 142.082 167.082 130.8 181 130.8C194.918 130.8 206.2 142.082 206.2 156Z" stroke="white"/>
<path d="M209.8 156C209.8 171.906 196.906 184.8 181 184.8C165.094 184.8 152.2 171.906 152.2 156C152.2 140.094 165.094 127.2 181 127.2C196.906 127.2 209.8 140.094 209.8 156Z" stroke="white"/>
<path d="M213.4 156C213.4 173.894 198.894 188.4 181 188.4C163.106 188.4 148.6 173.894 148.6 156C148.6 138.106 163.106 123.6 181 123.6C198.894 123.6 213.4 138.106 213.4 156Z" stroke="white"/>
<path d="M217 156C217 175.882 200.882 192 181 192C161.118 192 145 175.882 145 156C145 136.118 161.118 120 181 120C200.882 120 217 136.118 217 156Z" stroke="white"/>
<path d="M220.6 156C220.6 177.87 202.87 195.6 181 195.6C159.13 195.6 141.4 177.87 141.4 156C141.4 134.13 159.13 116.4 181 116.4C202.87 116.4 220.6 134.13 220.6 156Z" stroke="white"/>
<path d="M224.2 156C224.2 179.859 204.859 199.2 181 199.2C157.141 199.2 137.8 179.859 137.8 156C137.8 132.141 157.141 112.8 181 112.8C204.859 112.8 224.2 132.141 224.2 156Z" stroke="white"/>
<path d="M227.8 156C227.8 181.847 206.847 202.8 181 202.8C155.153 202.8 134.2 181.847 134.2 156C134.2 130.153 155.153 109.2 181 109.2C206.847 109.2 227.8 130.153 227.8 156Z" stroke="white"/>
<path d="M231.4 156C231.4 183.835 208.835 206.4 181 206.4C153.165 206.4 130.6 183.835 130.6 156C130.6 128.165 153.165 105.6 181 105.6C208.835 105.6 231.4 128.165 231.4 156Z" stroke="white"/>
<path d="M235 156C235 185.823 210.823 210 181 210C151.177 210 127 185.823 127 156C127 126.177 151.177 102 181 102C210.823 102 235 126.177 235 156Z" stroke="white"/>
<path d="M238.6 156C238.6 187.812 212.812 213.6 181 213.6C149.188 213.6 123.4 187.812 123.4 156C123.4 124.188 149.188 98.4 181 98.4C212.812 98.4 238.6 124.188 238.6 156Z" stroke="white"/>
<path d="M242.2 156C242.2 189.8 214.8 217.2 181 217.2C147.2 217.2 119.8 189.8 119.8 156C119.8 122.2 147.2 94.8 181 94.8C214.8 94.8 242.2 122.2 242.2 156Z" stroke="white"/>
<path d="M245.8 156C245.8 191.788 216.788 220.8 181 220.8C145.212 220.8 116.2 191.788 116.2 156C116.2 120.212 145.212 91.2 181 91.2C216.788 91.2 245.8 120.212 245.8 156Z" stroke="white"/>
<path d="M249.4 156C249.4 193.776 218.776 224.4 181 224.4C143.224 224.4 112.6 193.776 112.6 156C112.6 118.224 143.224 87.6 181 87.6C218.776 87.6 249.4 118.224 249.4 156Z" stroke="white"/>
<path d="M253 156C253 195.765 220.765 228 181 228C141.236 228 109 195.765 109 156C109 116.236 141.236 84 181 84C220.765 84 253 116.236 253 156Z" stroke="white"/>
<path d="M256.6 156C256.6 197.753 222.753 231.6 181 231.6C139.247 231.6 105.4 197.753 105.4 156C105.4 114.247 139.247 80.4 181 80.4C222.753 80.4 256.6 114.247 256.6 156Z" stroke="white"/>
<path d="M260.2 156C260.2 199.741 224.741 235.2 181 235.2C137.259 235.2 101.8 199.741 101.8 156C101.8 112.259 137.259 76.8 181 76.8C224.741 76.8 260.2 112.259 260.2 156Z" stroke="white"/>
<path d="M263.8 156C263.8 201.729 226.729 238.8 181 238.8C135.271 238.8 98.2 201.729 98.2 156C98.2 110.271 135.271 73.2 181 73.2C226.729 73.2 263.8 110.271 263.8 156Z" stroke="white"/>
<path d="M267.4 156C267.4 203.717 228.717 242.4 181 242.4C133.283 242.4 94.6 203.717 94.6 156C94.6 108.283 133.283 69.6 181 69.6C228.717 69.6 267.4 108.283 267.4 156Z" stroke="white"/>
<path d="M271 156C271 205.706 230.706 246 181 246C131.294 246 91 205.706 91 156C91 106.294 131.294 66 181 66C230.706 66 271 106.294 271 156Z" stroke="white"/>
<path d="M274.6 156C274.6 207.694 232.694 249.6 181 249.6C129.306 249.6 87.4 207.694 87.4 156C87.4 104.306 129.306 62.4 181 62.4C232.694 62.4 274.6 104.306 274.6 156Z" stroke="white"/>
<path d="M278.2 156C278.2 209.682 234.682 253.2 181 253.2C127.318 253.2 83.8 209.682 83.8 156C83.8 102.318 127.318 58.8 181 58.8C234.682 58.8 278.2 102.318 278.2 156Z" stroke="white"/>
<path d="M281.8 156C281.8 211.67 236.67 256.8 181 256.8C125.33 256.8 80.2 211.67 80.2 156C80.2 100.33 125.33 55.2 181 55.2C236.67 55.2 281.8 100.33 281.8 156Z" stroke="white"/>
<path d="M285.4 156C285.4 213.659 238.659 260.4 181 260.4C123.341 260.4 76.6 213.659 76.6 156C76.6 98.3415 123.341 51.6 181 51.6C238.659 51.6 285.4 98.3415 285.4 156Z" stroke="white"/>
<path d="M289 156C289 215.647 240.647 264 181 264C121.353 264 73 215.647 73 156C73 96.3533 121.353 48 181 48C240.647 48 289 96.3533 289 156Z" stroke="white"/>
<path d="M292.6 156C292.6 217.635 242.635 267.6 181 267.6C119.365 267.6 69.4 217.635 69.4 156C69.4 94.365 119.365 44.4 181 44.4C242.635 44.4 292.6 94.365 292.6 156Z" stroke="white"/>
<path d="M296.2 156C296.2 219.623 244.623 271.2 181 271.2C117.377 271.2 65.8 219.623 65.8 156C65.8 92.3768 117.377 40.8 181 40.8C244.623 40.8 296.2 92.3768 296.2 156Z" stroke="white"/>
<path d="M299.8 156C299.8 221.611 246.611 274.8 181 274.8C115.389 274.8 62.2 221.611 62.2 156C62.2 90.3886 115.389 37.2 181 37.2C246.611 37.2 299.8 90.3886 299.8 156Z" stroke="white"/>
<path d="M303.4 156C303.4 223.6 248.6 278.4 181 278.4C113.4 278.4 58.6 223.6 58.6 156C58.6 88.4004 113.4 33.6 181 33.6C248.6 33.6 303.4 88.4004 303.4 156Z" stroke="white"/>
<path d="M307 156C307 225.588 250.588 282 181 282C111.412 282 55 225.588 55 156C55 86.4121 111.412 30 181 30C250.588 30 307 86.4121 307 156Z" stroke="white"/>
<path d="M310.6 156C310.6 227.576 252.576 285.6 181 285.6C109.424 285.6 51.4 227.576 51.4 156C51.4 84.4239 109.424 26.4 181 26.4C252.576 26.4 310.6 84.4239 310.6 156Z" stroke="white"/>
<path d="M314.2 156C314.2 229.564 254.564 289.2 181 289.2C107.436 289.2 47.8 229.564 47.8 156C47.8 82.4357 107.436 22.8 181 22.8C254.564 22.8 314.2 82.4357 314.2 156Z" stroke="white"/>
<path d="M317.8 156C317.8 231.553 256.553 292.8 181 292.8C105.447 292.8 44.2 231.553 44.2 156C44.2 80.4474 105.447 19.2 181 19.2C256.553 19.2 317.8 80.4474 317.8 156Z" stroke="white"/>
<path d="M321.4 156C321.4 233.541 258.541 296.4 181 296.4C103.459 296.4 40.6 233.541 40.6 156C40.6 78.4592 103.459 15.6 181 15.6C258.541 15.6 321.4 78.4592 321.4 156Z" stroke="white"/>
<path d="M328.6 156C328.6 237.517 262.517 303.6 181 303.6C99.4828 303.6 33.4 237.517 33.4 156C33.4 74.4828 99.4828 8.4 181 8.4C262.517 8.4 328.6 74.4828 328.6 156Z" stroke="white"/>
<path d="M332.2 156C332.2 239.505 264.505 307.2 181 307.2C97.4945 307.2 29.8 239.505 29.8 156C29.8 72.4945 97.4945 4.8 181 4.8C264.505 4.8 332.2 72.4945 332.2 156Z" stroke="white"/>
<path d="M339.4 156C339.4 243.482 268.482 314.4 181 314.4C93.5181 314.4 22.6 243.482 22.6 156C22.6 68.5181 93.5181 -2.4 181 -2.4C268.482 -2.4 339.4 68.5181 339.4 156Z" stroke="white"/>
<path d="M335.8 156C335.8 241.494 266.494 310.8 181 310.8C95.5063 310.8 26.2 241.494 26.2 156C26.2 70.5063 95.5063 1.2 181 1.2C266.494 1.2 335.8 70.5063 335.8 156Z" stroke="white"/>
<path d="M343 156C343 245.47 270.47 318 181 318C91.5299 318 19 245.47 19 156C19 66.5299 91.5299 -6 181 -6C270.47 -6 343 66.5299 343 156Z" stroke="white"/>
<path d="M346.6 156C346.6 247.458 272.458 321.6 181 321.6C89.5417 321.6 15.4 247.458 15.4 156C15.4 64.5417 89.5417 -9.6 181 -9.6C272.458 -9.6 346.6 64.5417 346.6 156Z" stroke="white"/>
<path d="M350.2 156C350.2 249.447 274.447 325.2 181 325.2C87.5534 325.2 11.8 249.447 11.8 156C11.8 62.5534 87.5534 -13.2 181 -13.2C274.447 -13.2 350.2 62.5534 350.2 156Z" stroke="white"/>
<path d="M353.8 156C353.8 251.435 276.435 328.8 181 328.8C85.5652 328.8 8.2 251.435 8.2 156C8.2 60.5652 85.5652 -16.8 181 -16.8C276.435 -16.8 353.8 60.5652 353.8 156Z" stroke="white"/>
</g>
</svg>
